<svg aria-hidden="true" style="position: absolute; width: 0; height: 0; overflow: hidden;" version="1.1" xmlns="http://www.w3.org/2000/svg" xmlns:xlink="http://www.w3.org/1999/xlink">
<defs>
<symbol id="instagram" viewBox="0 0 32 32">
<path fill="#fff" style="fill: var(--color1, #fff)" d="M31.969 9.408c-0.075-1.7-0.35-2.869-0.744-3.882-0.406-1.075-1.031-2.038-1.85-2.838-0.8-0.813-1.769-1.444-2.832-1.844-1.019-0.394-2.182-0.669-3.882-0.744-1.713-0.081-2.257-0.1-6.601-0.1s-4.888 0.019-6.595 0.094c-1.7 0.075-2.869 0.35-3.882 0.744-1.075 0.406-2.038 1.031-2.838 1.85-0.813 0.8-1.444 1.769-1.844 2.832-0.394 1.019-0.669 2.182-0.744 3.882-0.081 1.713-0.1 2.257-0.1 6.601s0.019 4.888 0.094 6.595c0.075 1.7 0.35 2.869 0.744 3.882 0.406 1.075 1.038 2.038 1.85 2.838 0.8 0.813 1.769 1.444 2.832 1.844 1.019 0.394 2.182 0.669 3.882 0.744 1.706 0.075 2.25 0.094 6.595 0.094s4.888-0.019 6.595-0.094c1.7-0.075 2.869-0.35 3.882-0.744 2.151-0.832 3.851-2.532 4.682-4.682 0.394-1.019 0.669-2.182 0.744-3.882 0.075-1.707 0.094-2.25 0.094-6.595s-0.006-4.888-0.081-6.595zM29.087 22.473c-0.069 1.563-0.331 2.407-0.55 2.969-0.538 1.394-1.644 2.501-3.038 3.038-0.563 0.219-1.413 0.481-2.969 0.55-1.688 0.075-2.194 0.094-6.464 0.094s-4.782-0.019-6.464-0.094c-1.563-0.069-2.407-0.331-2.969-0.55-0.694-0.256-1.325-0.663-1.838-1.194-0.531-0.519-0.938-1.144-1.194-1.838-0.219-0.563-0.481-1.413-0.55-2.969-0.075-1.688-0.094-2.194-0.094-6.464s0.019-4.782 0.094-6.464c0.069-1.563 0.331-2.407 0.55-2.969 0.256-0.694 0.663-1.325 1.2-1.838 0.519-0.531 1.144-0.938 1.838-1.194 0.563-0.219 1.413-0.481 2.969-0.55 1.688-0.075 2.194-0.094 6.464-0.094 4.276 0 4.782 0.019 6.464 0.094 1.563 0.069 2.407 0.331 2.969 0.55 0.694 0.256 1.325 0.662 1.838 1.194 0.531 0.519 0.938 1.144 1.194 1.838 0.219 0.563 0.481 1.413 0.55 2.969 0.075 1.688 0.094 2.194 0.094 6.464s-0.019 4.77-0.094 6.458z"></path>
<path fill="#fff" style="fill: var(--color1, #fff)" d="M16.059 7.783c-4.538 0-8.22 3.682-8.22 8.22s3.682 8.22 8.22 8.22c4.538 0 8.22-3.682 8.22-8.22s-3.682-8.22-8.22-8.22zM16.059 21.336c-2.944 0-5.332-2.388-5.332-5.332s2.388-5.332 5.332-5.332c2.944 0 5.332 2.388 5.332 5.332s-2.388 5.332-5.332 5.332z"></path>
<path fill="#fff" style="fill: var(--color1, #fff)" d="M26.524 7.457c0 1.060-0.859 1.919-1.919 1.919s-1.919-0.859-1.919-1.919c0-1.060 0.859-1.919 1.919-1.919s1.919 0.859 1.919 1.919z"></path>
</symbol>
<symbol id="facebook" viewBox="0 0 32 32">
<path fill="#fff" style="fill: var(--color1, #fff)" d="M21.012 5.313h2.878v-5.088c-0.497-0.069-2.204-0.225-4.193-0.225-4.149 0-6.992 2.649-6.992 7.519v4.481h-4.579v5.688h4.579v14.312h5.614v-14.311h4.394l0.697-5.688h-5.092v-3.919c0.001-1.644 0.437-2.769 2.694-2.769z"></path>
</symbol>
<symbol id="twitter" viewBox="0 0 32 32">
<path fill="#fff" style="fill: var(--color1, #fff)" d="M32 6.078c-1.19 0.522-2.458 0.868-3.78 1.036 1.36-0.812 2.398-2.088 2.886-3.626-1.268 0.756-2.668 1.29-4.16 1.588-1.204-1.282-2.92-2.076-4.792-2.076-3.632 0-6.556 2.948-6.556 6.562 0 0.52 0.044 1.020 0.152 1.496-5.454-0.266-10.28-2.88-13.522-6.862-0.566 0.982-0.898 2.106-0.898 3.316 0 2.272 1.17 4.286 2.914 5.452-1.054-0.020-2.088-0.326-2.964-0.808 0 0.020 0 0.046 0 0.072 0 3.188 2.274 5.836 5.256 6.446-0.534 0.146-1.116 0.216-1.72 0.216-0.42 0-0.844-0.024-1.242-0.112 0.85 2.598 3.262 4.508 6.13 4.57-2.232 1.746-5.066 2.798-8.134 2.798-0.538 0-1.054-0.024-1.57-0.090 2.906 1.874 6.35 2.944 10.064 2.944 12.072 0 18.672-10 18.672-18.668 0-0.29-0.010-0.57-0.024-0.848 1.302-0.924 2.396-2.078 3.288-3.406z"></path>
</symbol>
<symbol id="linkedin" viewBox="0 0 32 32">
<path fill="#fff" style="fill: var(--color1, #fff)" d="M28.8 0h-25.6c-1.76 0-3.2 1.44-3.2 3.2v25.6c0 1.76 1.44 3.2 3.2 3.2h25.6c1.76 0 3.2-1.44 3.2-3.2v-25.6c0-1.76-1.44-3.2-3.2-3.2zM9.6 27.2h-4.8v-14.4h4.8v14.4zM7.2 10.080c-1.6 0-2.88-1.28-2.88-2.88s1.28-2.88 2.88-2.88c1.6 0 2.88 1.28 2.88 2.88s-1.28 2.88-2.88 2.88zM27.2 27.2h-4.8v-8.48c0-1.28-1.12-2.4-2.4-2.4s-2.4 1.12-2.4 2.4v8.48h-4.8v-14.4h4.8v1.92c0.8-1.28 2.56-2.24 4-2.24 3.040 0 5.6 2.56 5.6 5.6v9.12z"></path>
</symbol>
<symbol id="burger" viewBox="0 0 83 32">
<path fill="#fff" style="fill: var(--color1, #fff)" d="M0 0h83.2v6.4h-83.2v-6.4z"></path>
<path fill="#fff" style="fill: var(--color1, #fff)" d="M0 12.8h83.2v6.4h-83.2v-6.4z"></path>
<path fill="#fff" style="fill: var(--color1, #fff)" d="M0 25.6h83.2v6.4h-83.2v-6.4z"></path>
</symbol>

<symbol id="cross-card" viewBox="0 0 32 32">
<path fill="#1eacc7" style="fill: var(--color1, #1eacc7)" d="M18.286 0h-4.572v13.714h-13.714v4.571h13.714v13.715h4.572v-13.715h13.714v-4.571h-13.714v-13.714z"></path>
</symbol>

<symbol id="google-play" viewBox="0 0 63 32">
<path fill="#000" style="fill: var(--color1, #000)" d="M55.513 10.262c0-1.429-1.065-2.542-2.428-2.542h-43.441c-1.403 0-2.542 1.14-2.542 2.542v11.314c0 1.403 1.14 2.547 2.542 2.547h43.441c1.451 0 2.428-0.912 2.428-2.266v-11.595z"></path>
<path fill="#fff" style="fill: var(--color2, #fff)" d="M40.232 19.551l-0.368 0.346c-0.083 0.048-0.167 0.101-0.25 0.14-0.254 0.118-0.513 0.145-0.741 0.145-0.245 0-0.627-0.018-1.017-0.298-0.544-0.381-0.78-1.039-0.78-1.609 0-1.184 0.964-1.767 1.753-1.767 0.276 0 0.557 0.066 0.785 0.215 0.386 0.25 0.482 0.579 0.535 0.758l-1.793 0.723-0.592 0.048c0.188 0.969 0.846 1.534 1.574 1.534 0.364 0 0.631-0.118 0.881-0.241 0.004-0.009 0.053-0.035 0.013 0.004zM39.15 17.618c0.145-0.053 0.224-0.096 0.224-0.206 0-0.307-0.346-0.658-0.758-0.658-0.307 0-0.881 0.237-0.881 1.065 0 0.127 0.018 0.263 0.026 0.403l1.39-0.605z"></path>
<path fill="#fff" style="fill: var(--color2, #fff)" d="M36.476 19.489c0 0.298 0.053 0.342 0.302 0.368 0.132 0.018 0.263 0.022 0.39 0.039l-0.281 0.167h-1.346c0.175-0.228 0.206-0.25 0.206-0.403v-0.171l-0.004-4.546h-0.592l0.57-0.276h1.092c-0.237 0.136-0.307 0.219-0.338 0.487v4.335z"></path>
<path fill="#fff" style="fill: var(--color2, #fff)" d="M34.389 16.877c0.175 0.145 0.544 0.447 0.544 1.030 0 0.565-0.32 0.828-0.64 1.087-0.101 0.096-0.215 0.206-0.215 0.373s0.114 0.259 0.197 0.329l0.276 0.21c0.333 0.281 0.64 0.544 0.64 1.070 0 0.719-0.697 1.442-2.012 1.442-1.109 0-1.644-0.526-1.644-1.091 0-0.276 0.136-0.666 0.587-0.934 0.473-0.289 1.118-0.329 1.46-0.351-0.11-0.136-0.228-0.285-0.228-0.522 0-0.131 0.039-0.206 0.075-0.298-0.079 0.009-0.167 0.018-0.241 0.018-0.811 0-1.267-0.605-1.267-1.201 0-0.351 0.162-0.741 0.491-1.026 0.434-0.359 0.956-0.421 1.368-0.421h1.574l-0.491 0.276h-0.473zM33.845 20.27c-0.061-0.009-0.101-0.009-0.175-0.009-0.070 0-0.482 0.013-0.802 0.123-0.167 0.061-0.658 0.245-0.658 0.789 0 0.539 0.53 0.934 1.346 0.934 0.736 0 1.122-0.351 1.122-0.824 0-0.395-0.25-0.601-0.833-1.013zM34.069 18.819c0.175-0.18 0.193-0.421 0.193-0.557 0-0.548-0.329-1.407-0.96-1.407-0.202 0-0.416 0.101-0.535 0.254-0.127 0.158-0.167 0.368-0.167 0.565 0 0.513 0.298 1.363 0.951 1.363 0.188-0.009 0.395-0.101 0.517-0.219z"></path>
<path fill="#fff" style="fill: var(--color2, #fff)" d="M29.65 20.16c-1.214 0-1.863-0.947-1.863-1.806 0-0.999 0.815-1.854 1.977-1.854 1.127 0 1.828 0.877 1.828 1.802 0 0.903-0.693 1.859-1.942 1.859zM30.606 19.542c0.184-0.245 0.232-0.548 0.232-0.846 0-0.675-0.32-1.955-1.267-1.955-0.25 0-0.509 0.096-0.688 0.259-0.302 0.267-0.355 0.605-0.355 0.934 0 0.754 0.377 1.999 1.302 1.999 0.298-0.004 0.601-0.145 0.776-0.39z"></path>
<path fill="#fff" style="fill: var(--color2, #fff)" d="M25.582 20.16c-1.214 0-1.863-0.947-1.863-1.806 0-0.999 0.815-1.854 1.977-1.854 1.122 0 1.828 0.877 1.828 1.802 0 0.903-0.693 1.859-1.942 1.859zM26.538 19.542c0.184-0.245 0.228-0.548 0.228-0.846 0-0.675-0.32-1.955-1.267-1.955-0.254 0-0.504 0.096-0.688 0.259-0.298 0.267-0.351 0.605-0.351 0.934 0 0.754 0.377 1.999 1.298 1.999 0.302-0.004 0.605-0.145 0.78-0.39z"></path>
<path fill="#fff" style="fill: var(--color2, #fff)" d="M23.233 19.897l-1.026 0.237c-0.416 0.066-0.789 0.123-1.184 0.123-1.977 0-2.727-1.455-2.727-2.595 0-1.39 1.065-2.678 2.893-2.678 0.386 0 0.758 0.057 1.1 0.149 0.535 0.149 0.785 0.338 0.942 0.447l-0.596 0.565-0.25 0.057 0.18-0.285c-0.241-0.237-0.688-0.675-1.534-0.675-1.131 0-1.981 0.859-1.981 2.113 0 1.346 0.973 2.613 2.534 2.613 0.46 0 0.693-0.092 0.907-0.175v-1.153l-1.083 0.057 0.574-0.307h1.517l-0.184 0.18c-0.048 0.039-0.057 0.057-0.070 0.114-0.004 0.061-0.013 0.267-0.013 0.338v0.877z"></path>
<path fill="#fff" style="fill: var(--color2, #fff)" d="M42.437 19.581v1.946h-0.386v-4.953h0.386v0.565c0.25-0.364 0.715-0.653 1.245-0.653 0.96 0 1.604 0.728 1.604 1.876 0 1.144-0.644 1.885-1.604 1.885-0.504 0.004-0.956-0.259-1.245-0.666zM44.875 18.363c0-0.868-0.452-1.53-1.254-1.53-0.5 0-0.973 0.39-1.179 0.732v1.587c0.206 0.342 0.684 0.745 1.179 0.745 0.798 0.004 1.254-0.662 1.254-1.534z"></path>
<path fill="#fff" style="fill: var(--color2, #fff)" d="M45.817 15.207h0.386v4.953h-0.386v-4.953z"></path>
<path fill="#fff" style="fill: var(--color2, #fff)" d="M50.538 21.208c0.083 0.035 0.224 0.061 0.311 0.061 0.237 0 0.399-0.096 0.548-0.438l0.281-0.64-1.521-3.616h0.43l1.306 3.134 1.293-3.134h0.438l-1.859 4.375c-0.193 0.451-0.495 0.666-0.912 0.666-0.127 0-0.289-0.022-0.386-0.053l0.070-0.355z"></path>
<path fill="#fff" style="fill: var(--color2, #fff)" d="M49.411 20.151c-0.026-0.127-0.044-0.237-0.057-0.324-0.013-0.092-0.018-0.189-0.018-0.281-0.132 0.197-0.32 0.355-0.561 0.482-0.241 0.131-0.469 0.193-0.78 0.193-0.377 0-0.671-0.092-0.877-0.281-0.21-0.189-0.311-0.443-0.311-0.767 0-0.32 0.153-0.583 0.452-0.78 0.302-0.202 0.693-0.298 1.175-0.298h0.903v-0.447c0-0.259-0.088-0.46-0.263-0.605-0.175-0.149-0.421-0.219-0.741-0.219-0.289 0-0.53 0.066-0.706 0.197-0.18 0.136-0.267 0.302-0.267 0.504h-0.399l-0.004-0.022c-0.018-0.272 0.11-0.509 0.373-0.715 0.259-0.206 0.605-0.307 1.026-0.307s0.763 0.101 1.017 0.302c0.259 0.202 0.386 0.491 0.386 0.872v1.767c0 0.127 0.004 0.25 0.022 0.368s0.044 0.237 0.079 0.355l-0.447 0.004zM48.039 19.866c0.329 0 0.565-0.075 0.807-0.219 0.241-0.14 0.403-0.333 0.487-0.561v-0.688h-0.907c-0.346 0-0.631 0.079-0.859 0.232-0.224 0.153-0.342 0.342-0.342 0.557 0 0.206 0.070 0.368 0.215 0.491 0.149 0.127 0.351 0.189 0.601 0.189z"></path>
<path fill="#fff" style="fill: var(--color2, #fff)" d="M18.315 11.143c0-0.763 0.565-1.254 1.267-1.254 0.473 0 0.78 0.228 0.973 0.5l-0.342 0.197c-0.131-0.18-0.359-0.324-0.627-0.324-0.478 0-0.833 0.364-0.833 0.877 0 0.504 0.355 0.872 0.833 0.872 0.25 0 0.465-0.114 0.574-0.219v-0.373h-0.728v-0.373h1.144v0.903c-0.237 0.267-0.574 0.443-0.995 0.443-0.701 0.004-1.267-0.491-1.267-1.249z"></path>
<path fill="#fff" style="fill: var(--color2, #fff)" d="M21.098 12.353v-2.42h1.657v0.373h-1.232v0.622h1.21v0.377h-1.21v0.671h1.232v0.377z"></path>
<path fill="#fff" style="fill: var(--color2, #fff)" d="M23.93 12.353v-2.047h-0.732v-0.373h1.889v0.373h-0.732v2.047z"></path>
<path fill="#fff" style="fill: var(--color2, #fff)" d="M26.56 9.933h0.425v2.42h-0.425v-2.42z"></path>
<path fill="#fff" style="fill: var(--color2, #fff)" d="M28.164 12.353v-2.047h-0.732v-0.373h1.889v0.373h-0.732v2.047z"></path>
<path fill="#fff" style="fill: var(--color2, #fff)" d="M30.694 11.143c0-0.719 0.509-1.254 1.236-1.254 0.719 0 1.236 0.53 1.236 1.254 0 0.719-0.517 1.249-1.236 1.249-0.728 0-1.236-0.53-1.236-1.249zM32.728 11.143c0-0.5-0.316-0.872-0.798-0.872-0.491 0-0.802 0.373-0.802 0.872 0 0.495 0.311 0.872 0.802 0.872 0.482 0 0.798-0.377 0.798-0.872z"></path>
<path fill="#fff" style="fill: var(--color2, #fff)" d="M35.345 12.353l-1.262-1.732v1.732h-0.425v-2.42h0.438l1.236 1.675v-1.675h0.421v2.42z"></path>
<path fill="#000" style="fill: var(--color1, #000)" d="M15.356 17.964l-1.127-4.91-5.804 1.337 1.127 4.905z"></path>
<path fill="#000" style="fill: var(--color1, #000)" d="M12.164 17.556l1.907 3.261 3.494-2.043-1.911-3.261z"></path>
<path fill="#000" style="fill: var(--color1, #000)" d="M15.171 21.628l-2.187-8.447-5.861 1.521 2.192 8.443z"></path>
<path fill="#000" style="fill: var(--color1, #000)" d="M14.4 17.464l-5.65 0.771 0.631 4.629 5.65-0.776z"></path>
</symbol>

<symbol id="app-store" viewBox="0 0 44 32">
<path fill="#000" style="fill: var(--color1, #000)" d="M35.186 18.969c0 0.409-0.332 0.743-0.743 0.743h-24.311c-0.411 0-0.745-0.332-0.745-0.743v-5.919c0-0.409 0.334-0.743 0.745-0.743h24.311c0.411 0 0.743 0.334 0.743 0.743v5.919z"></path>
<path fill="#fff" style="fill: var(--color2, #fff)" d="M15.054 15.967c-0.005-0.626 0.512-0.93 0.535-0.944-0.292-0.427-0.747-0.483-0.906-0.491-0.381-0.040-0.75 0.229-0.946 0.229s-0.498-0.224-0.82-0.217c-0.416 0.007-0.801 0.245-1.014 0.619-0.439 0.759-0.112 1.878 0.308 2.492 0.21 0.301 0.455 0.635 0.778 0.626 0.315-0.012 0.432-0.201 0.813-0.201 0.376 0 0.486 0.201 0.815 0.194 0.339-0.005 0.551-0.301 0.752-0.605 0.243-0.346 0.341-0.684 0.346-0.703-0.007-0.002-0.654-0.25-0.661-1z"></path>
<path fill="#fff" style="fill: var(--color2, #fff)" d="M14.433 14.131c0.171-0.213 0.285-0.5 0.252-0.792-0.245 0.012-0.551 0.168-0.729 0.376-0.156 0.182-0.297 0.481-0.259 0.764 0.278 0.021 0.561-0.14 0.736-0.348z"></path>
<path fill="#fff" style="fill: var(--color2, #fff)" d="M19.611 18.238h-0.441l-0.243-0.757h-0.836l-0.229 0.757h-0.427l0.832-2.579h0.514l0.832 2.579zM18.857 17.163l-0.22-0.673c-0.021-0.068-0.065-0.231-0.128-0.486h-0.007c-0.026 0.11-0.065 0.271-0.124 0.486l-0.215 0.673h0.694z"></path>
<path fill="#fff" style="fill: var(--color2, #fff)" d="M21.746 17.287c0 0.318-0.086 0.565-0.257 0.75-0.154 0.163-0.343 0.243-0.57 0.243-0.245 0-0.42-0.089-0.528-0.264h-0.009v0.981h-0.411v-2.004c0-0.199-0.005-0.404-0.014-0.612h0.362l0.023 0.294h0.009c0.138-0.222 0.346-0.332 0.628-0.332 0.22 0 0.402 0.086 0.549 0.259 0.142 0.171 0.217 0.399 0.217 0.684zM21.326 17.301c0-0.182-0.042-0.332-0.124-0.448-0.089-0.124-0.21-0.185-0.36-0.185-0.103 0-0.194 0.035-0.278 0.1-0.082 0.068-0.138 0.157-0.163 0.266-0.012 0.051-0.019 0.093-0.019 0.126v0.308c0 0.135 0.042 0.25 0.124 0.343 0.082 0.091 0.189 0.14 0.322 0.14 0.154 0 0.276-0.061 0.364-0.18 0.089-0.117 0.133-0.276 0.133-0.472z"></path>
<path fill="#fff" style="fill: var(--color2, #fff)" d="M23.883 17.287c0 0.318-0.086 0.565-0.257 0.75-0.152 0.163-0.341 0.243-0.57 0.243-0.245 0-0.42-0.089-0.528-0.264h-0.007v0.981h-0.413v-2.004c0-0.199-0.005-0.404-0.014-0.612h0.362l0.023 0.294h0.007c0.138-0.222 0.346-0.332 0.628-0.332 0.22 0 0.402 0.086 0.549 0.259 0.147 0.171 0.22 0.399 0.22 0.684zM23.463 17.301c0-0.182-0.042-0.332-0.124-0.448-0.089-0.124-0.21-0.185-0.36-0.185-0.103 0-0.194 0.035-0.278 0.1-0.082 0.068-0.138 0.157-0.163 0.266-0.012 0.051-0.019 0.093-0.019 0.126v0.308c0 0.135 0.042 0.25 0.124 0.343 0.084 0.091 0.192 0.14 0.325 0.14 0.154 0 0.276-0.061 0.362-0.18 0.089-0.117 0.133-0.276 0.133-0.472z"></path>
<path fill="#fff" style="fill: var(--color2, #fff)" d="M26.275 17.516c0 0.22-0.077 0.397-0.229 0.535-0.168 0.152-0.402 0.227-0.703 0.227-0.278 0-0.5-0.054-0.668-0.161l0.096-0.346c0.182 0.11 0.381 0.166 0.596 0.166 0.157 0 0.276-0.035 0.364-0.107 0.086-0.070 0.128-0.163 0.128-0.283 0-0.105-0.035-0.192-0.107-0.264-0.070-0.072-0.192-0.138-0.355-0.199-0.451-0.168-0.677-0.416-0.677-0.74 0-0.213 0.079-0.385 0.236-0.521 0.159-0.135 0.369-0.203 0.633-0.203 0.234 0 0.43 0.042 0.584 0.124l-0.103 0.336c-0.145-0.079-0.311-0.119-0.495-0.119-0.145 0-0.259 0.035-0.341 0.107-0.068 0.063-0.103 0.14-0.103 0.234 0 0.103 0.037 0.185 0.117 0.252 0.068 0.061 0.194 0.128 0.376 0.199 0.222 0.089 0.385 0.194 0.488 0.313 0.11 0.121 0.163 0.273 0.163 0.451z"></path>
<path fill="#fff" style="fill: var(--color2, #fff)" d="M27.641 16.689h-0.455v0.904c0 0.229 0.082 0.346 0.241 0.346 0.075 0 0.135-0.007 0.185-0.019l0.012 0.313c-0.082 0.030-0.189 0.047-0.322 0.047-0.163 0-0.29-0.049-0.381-0.149s-0.138-0.266-0.138-0.5v-0.937h-0.271v-0.308h0.271v-0.341l0.404-0.121v0.462h0.455v0.304z"></path>
<path fill="#fff" style="fill: var(--color2, #fff)" d="M29.695 17.294c0 0.285-0.082 0.521-0.245 0.703-0.171 0.189-0.397 0.283-0.68 0.283-0.273 0-0.491-0.091-0.652-0.271s-0.243-0.409-0.243-0.684c0-0.287 0.084-0.523 0.252-0.708 0.166-0.185 0.392-0.273 0.675-0.273 0.273 0 0.493 0.089 0.659 0.271 0.154 0.173 0.234 0.402 0.234 0.68zM29.267 17.308c0-0.173-0.037-0.318-0.112-0.441-0.086-0.149-0.21-0.224-0.369-0.224-0.166 0-0.292 0.075-0.378 0.224-0.075 0.121-0.11 0.271-0.11 0.448 0 0.171 0.035 0.318 0.11 0.441 0.089 0.147 0.215 0.222 0.374 0.222s0.283-0.075 0.371-0.227c0.075-0.126 0.114-0.273 0.114-0.444z"></path>
<path fill="#fff" style="fill: var(--color2, #fff)" d="M31.038 16.743c-0.042-0.007-0.084-0.012-0.131-0.012-0.147 0-0.259 0.054-0.339 0.163-0.068 0.098-0.103 0.22-0.103 0.367v0.974h-0.413l0.005-1.273c0-0.215-0.007-0.409-0.016-0.586h0.36l0.016 0.355h0.012c0.042-0.121 0.112-0.222 0.206-0.294 0.093-0.065 0.192-0.1 0.299-0.1 0.040 0 0.072 0.002 0.105 0.009v0.397z"></path>
<path fill="#fff" style="fill: var(--color2, #fff)" d="M32.885 17.222c0 0.075-0.005 0.138-0.016 0.187h-1.238c0.005 0.185 0.065 0.322 0.18 0.42 0.103 0.086 0.241 0.131 0.404 0.131 0.182 0 0.35-0.028 0.502-0.089l0.063 0.287c-0.175 0.077-0.383 0.114-0.624 0.114-0.287 0-0.514-0.084-0.68-0.255-0.163-0.171-0.245-0.397-0.245-0.684 0-0.28 0.077-0.514 0.229-0.701 0.159-0.199 0.378-0.297 0.652-0.297 0.266 0 0.472 0.1 0.607 0.297 0.112 0.161 0.166 0.355 0.166 0.589zM32.49 17.114c0.002-0.124-0.023-0.229-0.079-0.318-0.072-0.114-0.18-0.173-0.329-0.173-0.135 0-0.245 0.056-0.329 0.168-0.070 0.089-0.11 0.196-0.121 0.32h0.86z"></path>
<path fill="#fff" style="fill: var(--color2, #fff)" d="M18.721 14.073c0 0.229-0.068 0.399-0.206 0.516-0.126 0.105-0.306 0.159-0.54 0.159-0.114 0-0.215-0.005-0.297-0.014v-1.247c0.107-0.016 0.224-0.026 0.35-0.026 0.222 0 0.388 0.047 0.5 0.145 0.128 0.11 0.192 0.264 0.192 0.467zM18.506 14.080c0-0.147-0.040-0.262-0.117-0.341-0.079-0.079-0.192-0.119-0.343-0.119-0.063 0-0.119 0.005-0.163 0.014v0.946c0.026 0.005 0.070 0.007 0.138 0.007 0.157 0 0.276-0.044 0.36-0.131s0.126-0.21 0.126-0.376z"></path>
<path fill="#fff" style="fill: var(--color2, #fff)" d="M19.856 14.274c0 0.14-0.040 0.255-0.121 0.346-0.084 0.093-0.196 0.14-0.334 0.14-0.133 0-0.241-0.044-0.322-0.133-0.079-0.089-0.119-0.201-0.119-0.336 0-0.142 0.042-0.257 0.124-0.348s0.192-0.135 0.332-0.135c0.133 0 0.243 0.044 0.322 0.133 0.079 0.086 0.119 0.196 0.119 0.334zM19.644 14.281c0-0.084-0.019-0.159-0.054-0.217-0.042-0.072-0.103-0.107-0.182-0.107-0.082 0-0.142 0.035-0.185 0.107-0.037 0.061-0.054 0.135-0.054 0.222 0 0.084 0.016 0.156 0.054 0.217 0.042 0.072 0.105 0.11 0.185 0.11 0.077 0 0.138-0.037 0.182-0.112 0.037-0.063 0.054-0.135 0.054-0.22z"></path>
<path fill="#fff" style="fill: var(--color2, #fff)" d="M21.377 13.823l-0.285 0.913h-0.187l-0.117-0.395c-0.030-0.098-0.054-0.196-0.072-0.294h-0.005c-0.019 0.1-0.042 0.199-0.072 0.294l-0.126 0.397h-0.187l-0.269-0.913h0.208l0.105 0.434c0.026 0.103 0.044 0.201 0.063 0.294h0.005c0.014-0.077 0.040-0.173 0.075-0.292l0.131-0.437h0.166l0.124 0.427c0.030 0.105 0.054 0.206 0.075 0.301h0.005c0.014-0.093 0.035-0.194 0.063-0.301l0.11-0.427h0.192z"></path>
<path fill="#fff" style="fill: var(--color2, #fff)" d="M22.43 14.736h-0.203v-0.523c0-0.161-0.061-0.243-0.185-0.243-0.061 0-0.107 0.023-0.147 0.068-0.037 0.044-0.056 0.096-0.056 0.156v0.542h-0.203v-0.652c0-0.079-0.002-0.166-0.007-0.262h0.178l0.009 0.142h0.005c0.023-0.044 0.058-0.079 0.105-0.11 0.054-0.033 0.117-0.051 0.185-0.051 0.084 0 0.154 0.028 0.213 0.084 0.070 0.068 0.105 0.168 0.105 0.301v0.547z"></path>
<path fill="#fff" style="fill: var(--color2, #fff)" d="M22.788 13.405h0.203v1.331h-0.203v-1.331z"></path>
<path fill="#fff" style="fill: var(--color2, #fff)" d="M24.187 14.274c0 0.14-0.040 0.255-0.119 0.346-0.084 0.093-0.196 0.14-0.334 0.14-0.135 0-0.243-0.044-0.322-0.133s-0.119-0.201-0.119-0.336c0-0.142 0.040-0.257 0.124-0.348 0.082-0.091 0.192-0.135 0.332-0.135 0.133 0 0.241 0.044 0.322 0.133 0.077 0.086 0.117 0.196 0.117 0.334zM23.974 14.281c0-0.084-0.019-0.159-0.054-0.217-0.042-0.072-0.105-0.107-0.182-0.107-0.082 0-0.142 0.035-0.187 0.107-0.037 0.061-0.054 0.135-0.054 0.222 0 0.084 0.016 0.156 0.054 0.217 0.044 0.072 0.105 0.11 0.185 0.11 0.077 0 0.138-0.037 0.182-0.112 0.037-0.063 0.056-0.135 0.056-0.22z"></path>
<path fill="#fff" style="fill: var(--color2, #fff)" d="M25.168 14.736h-0.182l-0.014-0.105h-0.005c-0.063 0.084-0.152 0.126-0.266 0.126-0.086 0-0.157-0.028-0.208-0.084-0.049-0.049-0.070-0.112-0.070-0.185 0-0.112 0.047-0.196 0.14-0.255s0.224-0.089 0.395-0.086v-0.016c0-0.121-0.063-0.18-0.189-0.18-0.091 0-0.168 0.021-0.238 0.068l-0.042-0.133c0.084-0.051 0.189-0.077 0.313-0.077 0.238 0 0.36 0.126 0.36 0.378v0.336c-0.005 0.086-0.002 0.159 0.007 0.213zM24.958 14.423v-0.14c-0.224-0.005-0.336 0.058-0.336 0.185 0 0.047 0.014 0.084 0.040 0.107s0.061 0.035 0.1 0.035c0.044 0 0.086-0.014 0.124-0.042s0.061-0.065 0.070-0.107c0-0.012 0.002-0.023 0.002-0.037z"></path>
<path fill="#fff" style="fill: var(--color2, #fff)" d="M26.322 14.736h-0.18l-0.012-0.147h-0.005c-0.058 0.112-0.154 0.168-0.292 0.168-0.11 0-0.203-0.044-0.273-0.131-0.075-0.086-0.11-0.199-0.11-0.336 0-0.147 0.040-0.266 0.119-0.36 0.077-0.084 0.171-0.126 0.283-0.126 0.124 0 0.208 0.042 0.257 0.124h0.005v-0.526h0.203v1.086c-0.002 0.091 0 0.173 0.005 0.248zM26.112 14.351v-0.154c0-0.026-0.002-0.047-0.005-0.063-0.012-0.049-0.037-0.089-0.075-0.124-0.037-0.033-0.084-0.049-0.135-0.049-0.075 0-0.135 0.030-0.18 0.091-0.042 0.061-0.065 0.138-0.065 0.231 0 0.089 0.021 0.164 0.063 0.22 0.044 0.061 0.105 0.089 0.178 0.089 0.068 0 0.121-0.026 0.161-0.075 0.040-0.044 0.058-0.1 0.058-0.166z"></path>
<path fill="#fff" style="fill: var(--color2, #fff)" d="M28.060 14.274c0 0.14-0.042 0.255-0.121 0.346-0.084 0.093-0.196 0.14-0.334 0.14-0.133 0-0.241-0.044-0.322-0.133-0.079-0.089-0.119-0.201-0.119-0.336 0-0.142 0.042-0.257 0.124-0.348s0.192-0.135 0.332-0.135c0.133 0 0.243 0.044 0.322 0.133 0.079 0.086 0.119 0.196 0.119 0.334zM27.849 14.281c0-0.084-0.019-0.159-0.054-0.217-0.044-0.072-0.103-0.107-0.182-0.107s-0.142 0.035-0.187 0.107c-0.035 0.061-0.054 0.135-0.054 0.222 0 0.084 0.019 0.156 0.054 0.217 0.044 0.072 0.107 0.11 0.185 0.11s0.138-0.037 0.185-0.112c0.035-0.063 0.054-0.135 0.054-0.22z"></path>
<path fill="#fff" style="fill: var(--color2, #fff)" d="M29.15 14.736h-0.201v-0.523c0-0.161-0.063-0.243-0.185-0.243-0.061 0-0.11 0.023-0.145 0.068-0.037 0.044-0.056 0.096-0.056 0.156v0.542h-0.203v-0.652c0-0.079-0.002-0.166-0.007-0.262h0.18l0.009 0.142h0.007c0.023-0.044 0.058-0.079 0.105-0.11 0.054-0.033 0.117-0.051 0.185-0.051 0.084 0 0.154 0.028 0.213 0.084 0.070 0.068 0.105 0.168 0.105 0.301v0.547z"></path>
<path fill="#fff" style="fill: var(--color2, #fff)" d="M30.517 13.975h-0.224v0.444c0 0.112 0.040 0.168 0.117 0.168 0.037 0 0.068-0.002 0.091-0.009l0.005 0.154c-0.040 0.014-0.091 0.023-0.157 0.023-0.079 0-0.142-0.023-0.187-0.072-0.047-0.049-0.068-0.131-0.068-0.245v-0.46h-0.133v-0.152h0.133v-0.166l0.199-0.061v0.227h0.224v0.149z"></path>
<path fill="#fff" style="fill: var(--color2, #fff)" d="M31.591 14.736h-0.203v-0.519c0-0.164-0.061-0.245-0.185-0.245-0.093 0-0.157 0.049-0.194 0.142-0.007 0.021-0.009 0.044-0.009 0.072v0.549h-0.203v-1.334h0.203v0.551h0.002c0.065-0.1 0.157-0.149 0.276-0.149 0.084 0 0.152 0.028 0.208 0.084 0.068 0.068 0.103 0.171 0.103 0.306v0.542z"></path>
<path fill="#fff" style="fill: var(--color2, #fff)" d="M32.701 14.236c0 0.035-0.002 0.068-0.009 0.091h-0.607c0.002 0.091 0.030 0.159 0.089 0.206 0.051 0.044 0.119 0.065 0.199 0.065 0.091 0 0.173-0.014 0.248-0.044l0.030 0.142c-0.086 0.035-0.187 0.056-0.306 0.056-0.14 0-0.252-0.042-0.332-0.126-0.082-0.082-0.121-0.194-0.121-0.334 0-0.138 0.037-0.252 0.112-0.343 0.079-0.098 0.185-0.147 0.32-0.147 0.131 0 0.231 0.049 0.299 0.147 0.054 0.077 0.079 0.173 0.079 0.287zM32.507 14.185c0.002-0.061-0.012-0.112-0.040-0.156-0.035-0.056-0.089-0.084-0.161-0.084-0.068 0-0.119 0.028-0.161 0.082-0.035 0.044-0.054 0.096-0.058 0.159h0.42z"></path>
</symbol>
<symbol id="windows-store" viewBox="0 0 75 32">
<path fill="#578556" style="fill: var(--color3, #578556)" d="M67.456 24.238v-15.332h-59.029v15.332z"></path>
<path fill="#080d0d" style="fill: var(--color4, #080d0d)" d="M67.456 24.238v-15.332h-59.029v15.332z"></path>
<path fill="#fff" style="fill: var(--color2, #fff)" d="M16.147 11.805c0.018 0.084 0.030 0.192 0.030 0.311-0.443 0.192-0.611 0.329-0.605 0.982v0.401l-0.299 0.060v-0.461c0-0.97 0.365-1.12 0.874-1.294zM17.021 11.595c0.018 0.096 0.036 0.198 0.048 0.305 0.791-0.114 0.773 0.216 0.773 0.892v0.252l0.299-0.060v-0.192c0-1.060-0.162-1.342-1.12-1.198zM13.913 13.829v-1.389c-0.012-0.862 0.437-1.126 1.258-1.318 1.234-0.287 1.312 0.509 1.312 1.012v1.174l0.299-0.060v-1.090c0-0.958-0.299-1.677-1.677-1.366-0.743 0.168-1.497 0.359-1.497 1.617v1.479l0.305-0.060zM17.53 17.482h-2.324v-1.683l2.324-0.341v2.024zM17.53 19.854l-2.324-0.341v-1.809h2.324v2.15zM14.973 17.482h-1.845v-1.407l1.845-0.264v1.671zM14.973 19.501l-1.845-0.258v-1.533h1.845v1.791zM19.656 13.044l-8.313 1.665v6.043l8.313 1.665 1.659-0.605v-8.163l-1.659-0.605z"></path>
<path fill="#fff" style="fill: var(--color2, #fff)" d="M26.957 13.272c0 0.311-0.066 0.581-0.204 0.82-0.138 0.234-0.329 0.419-0.575 0.545-0.252 0.126-0.539 0.192-0.856 0.192h-0.803v-3.037h0.838c1.060-0.006 1.599 0.491 1.599 1.479zM26.586 13.278c0-0.779-0.413-1.168-1.24-1.168h-0.473v2.396h0.449c0.401 0 0.713-0.108 0.934-0.323 0.216-0.21 0.329-0.515 0.329-0.904zM29.479 13.733c0 0.341-0.096 0.623-0.293 0.832s-0.455 0.317-0.785 0.317c-0.323 0-0.575-0.102-0.767-0.305s-0.287-0.473-0.287-0.809c0-0.359 0.096-0.641 0.293-0.85s0.467-0.311 0.815-0.311c0.323 0 0.575 0.102 0.755 0.299 0.18 0.204 0.27 0.479 0.27 0.826zM29.125 13.745c0-0.275-0.060-0.479-0.18-0.629-0.12-0.144-0.293-0.216-0.521-0.216-0.222 0-0.401 0.072-0.527 0.222-0.132 0.15-0.198 0.359-0.198 0.629 0 0.264 0.066 0.461 0.198 0.611 0.132 0.144 0.305 0.222 0.527 0.222 0.228 0 0.401-0.072 0.521-0.216s0.18-0.353 0.18-0.623zM32.749 12.655l-0.653 2.168h-0.353l-0.449-1.551c-0.012-0.054-0.024-0.12-0.036-0.198h-0.006c-0.006 0.048-0.018 0.114-0.042 0.198l-0.485 1.557h-0.347l-0.653-2.168h0.365l0.449 1.629c0.012 0.054 0.024 0.12 0.030 0.198h0.018c0-0.054 0.018-0.12 0.042-0.198l0.497-1.629h0.317l0.449 1.635c0.012 0.054 0.024 0.12 0.030 0.198h0.018c0.006-0.066 0.012-0.132 0.036-0.198l0.443-1.635h0.329zM34.959 14.829h-0.347v-1.24c0-0.461-0.168-0.689-0.503-0.689-0.174 0-0.317 0.066-0.431 0.192-0.114 0.132-0.174 0.293-0.174 0.497v1.24h-0.347v-2.168h0.347v0.359h0.006c0.162-0.275 0.401-0.413 0.713-0.413 0.24 0 0.419 0.078 0.545 0.234s0.186 0.377 0.186 0.659v1.33zM35.959 14.829h-0.347v-3.21h0.347v3.21zM38.636 13.733c0 0.341-0.096 0.623-0.293 0.832s-0.461 0.317-0.785 0.317c-0.323 0-0.575-0.102-0.767-0.305s-0.287-0.473-0.287-0.809c0-0.359 0.096-0.641 0.293-0.85s0.467-0.311 0.809-0.311c0.323 0 0.575 0.102 0.755 0.299 0.18 0.204 0.276 0.479 0.276 0.826zM38.277 13.745c0-0.275-0.060-0.479-0.18-0.629-0.12-0.144-0.293-0.216-0.515-0.216s-0.401 0.072-0.533 0.222c-0.132 0.15-0.192 0.359-0.192 0.629 0 0.264 0.066 0.461 0.198 0.611 0.132 0.144 0.305 0.222 0.527 0.222 0.228 0 0.401-0.072 0.521-0.216 0.114-0.144 0.174-0.353 0.174-0.623zM40.708 14.829h-0.347v-0.341h-0.006c-0.15 0.264-0.377 0.395-0.665 0.395-0.21 0-0.377-0.060-0.503-0.174s-0.192-0.27-0.192-0.461c0-0.401 0.24-0.641 0.719-0.707l0.653-0.090c0-0.365-0.15-0.551-0.449-0.551-0.264 0-0.497 0.090-0.707 0.264v-0.353c0.066-0.048 0.174-0.096 0.323-0.138 0.156-0.042 0.293-0.066 0.413-0.066 0.509 0 0.767 0.27 0.767 0.815v1.407zM40.361 13.727l-0.527 0.072c-0.18 0.024-0.305 0.066-0.377 0.126s-0.108 0.156-0.108 0.293c0 0.108 0.036 0.198 0.114 0.264s0.174 0.102 0.299 0.102c0.174 0 0.317-0.060 0.425-0.18 0.114-0.12 0.168-0.275 0.168-0.455v-0.222zM43.2 14.829h-0.347v-0.371h-0.006c-0.162 0.281-0.413 0.425-0.749 0.425-0.276 0-0.491-0.102-0.653-0.293-0.162-0.198-0.246-0.461-0.246-0.791 0-0.359 0.090-0.647 0.27-0.862s0.419-0.323 0.725-0.323c0.293 0 0.515 0.12 0.653 0.353h0.006v-1.342h0.347v3.204zM42.852 13.847v-0.323c0-0.18-0.060-0.329-0.18-0.449s-0.264-0.18-0.437-0.18c-0.21 0-0.377 0.078-0.497 0.234s-0.186 0.371-0.186 0.641c0 0.246 0.060 0.443 0.174 0.593 0.114 0.144 0.27 0.216 0.467 0.216 0.192 0 0.347-0.072 0.473-0.21 0.12-0.132 0.186-0.305 0.186-0.521zM45.985 11.918c-0.066-0.036-0.144-0.060-0.234-0.060-0.24 0-0.365 0.156-0.365 0.461v0.335h0.509v0.293h-0.509v1.875h-0.347v-1.875h-0.371v-0.293h0.371v-0.353c0-0.222 0.066-0.395 0.198-0.533s0.293-0.204 0.497-0.204c0.108 0 0.192 0.012 0.252 0.036v0.317zM47.404 13.008c-0.060-0.048-0.15-0.072-0.264-0.072-0.156 0-0.276 0.072-0.377 0.216-0.096 0.144-0.144 0.335-0.144 0.563v1.108h-0.347v-2.168h0.347v0.449h0.006c0.048-0.15 0.12-0.27 0.222-0.353s0.216-0.132 0.347-0.132c0.090 0 0.162 0.012 0.21 0.030v0.359zM49.698 13.733c0 0.341-0.096 0.623-0.293 0.832s-0.461 0.317-0.791 0.317c-0.317 0-0.575-0.102-0.767-0.305s-0.287-0.473-0.287-0.809c0-0.359 0.096-0.641 0.293-0.85s0.467-0.311 0.815-0.311c0.323 0 0.575 0.102 0.755 0.299 0.186 0.204 0.276 0.479 0.276 0.826zM49.339 13.745c0-0.275-0.060-0.479-0.18-0.629-0.12-0.144-0.293-0.216-0.515-0.216s-0.401 0.072-0.533 0.222c-0.132 0.15-0.198 0.359-0.198 0.629 0 0.264 0.066 0.461 0.198 0.611 0.132 0.144 0.305 0.222 0.527 0.222 0.228 0 0.401-0.072 0.521-0.216s0.18-0.353 0.18-0.623zM53.315 14.829h-0.347v-1.246c0-0.24-0.036-0.419-0.114-0.521-0.072-0.108-0.198-0.156-0.377-0.156-0.15 0-0.276 0.066-0.377 0.204s-0.156 0.299-0.156 0.485v1.24h-0.347v-1.288c0-0.425-0.162-0.641-0.491-0.641-0.15 0-0.276 0.066-0.377 0.192s-0.15 0.293-0.15 0.497v1.24h-0.347v-2.168h0.347v0.341h0.006c0.156-0.264 0.377-0.395 0.671-0.395 0.138 0 0.27 0.042 0.383 0.12s0.192 0.192 0.234 0.329c0.162-0.299 0.401-0.449 0.719-0.449 0.479 0 0.719 0.293 0.719 0.886v1.33z"></path>
<path fill="#fff" style="fill: var(--color2, #fff)" d="M30.072 16.776l-1.276 4.528h-0.623l-0.934-3.312c-0.036-0.126-0.060-0.276-0.066-0.455h-0.012c-0.018 0.156-0.048 0.305-0.084 0.449l-0.94 3.318h-0.617l-1.324-4.528h0.581l0.964 3.474c0.042 0.156 0.066 0.305 0.078 0.455h0.012c0.012-0.126 0.042-0.282 0.096-0.455l1.006-3.474h0.509l0.958 3.498c0.036 0.132 0.060 0.27 0.078 0.419h0.012c0.012-0.108 0.042-0.252 0.084-0.431l0.922-3.486h0.575zM31.102 17.009c0 0.096-0.036 0.18-0.102 0.24-0.066 0.066-0.15 0.096-0.24 0.096-0.096 0-0.174-0.030-0.24-0.090-0.066-0.066-0.096-0.144-0.096-0.246 0-0.090 0.036-0.168 0.096-0.234 0.066-0.066 0.144-0.102 0.24-0.102s0.18 0.036 0.246 0.096c0.060 0.066 0.096 0.15 0.096 0.24zM31.012 21.303h-0.515v-3.234h0.515v3.234zM34.48 21.303h-0.521v-1.845c0-0.683-0.252-1.024-0.749-1.024-0.258 0-0.467 0.096-0.641 0.287s-0.258 0.437-0.258 0.737v1.845h-0.515v-3.234h0.515v0.539h0.012c0.246-0.407 0.593-0.617 1.060-0.617 0.353 0 0.629 0.114 0.815 0.347s0.282 0.557 0.282 0.982v1.982zM38.067 21.303h-0.515v-0.551h-0.012c-0.24 0.419-0.611 0.629-1.108 0.629-0.407 0-0.731-0.15-0.976-0.437-0.24-0.293-0.359-0.683-0.359-1.174 0-0.533 0.132-0.964 0.401-1.288s0.629-0.485 1.078-0.485c0.443 0 0.767 0.174 0.97 0.521h0.012v-2h0.515v4.785zM37.552 19.842v-0.479c0-0.27-0.090-0.491-0.264-0.665-0.18-0.174-0.395-0.264-0.647-0.264-0.311 0-0.557 0.114-0.743 0.347-0.186 0.228-0.276 0.551-0.276 0.958 0 0.371 0.090 0.665 0.258 0.88 0.174 0.216 0.407 0.323 0.701 0.323 0.282 0 0.515-0.102 0.701-0.311 0.18-0.204 0.27-0.467 0.27-0.791zM41.888 19.674c0 0.515-0.144 0.928-0.437 1.24s-0.683 0.467-1.174 0.467c-0.479 0-0.856-0.15-1.144-0.455s-0.425-0.707-0.425-1.198c0-0.533 0.144-0.958 0.437-1.27s0.695-0.467 1.21-0.467c0.479 0 0.856 0.15 1.126 0.449 0.276 0.299 0.407 0.713 0.407 1.234zM41.361 19.692c0-0.407-0.090-0.719-0.27-0.934s-0.437-0.323-0.773-0.323c-0.329 0-0.593 0.114-0.791 0.335-0.192 0.222-0.287 0.533-0.287 0.94 0 0.389 0.096 0.689 0.293 0.904 0.192 0.216 0.455 0.329 0.785 0.329 0.335 0 0.593-0.108 0.773-0.323s0.27-0.527 0.27-0.928zM46.602 18.069l-0.97 3.234h-0.539l-0.665-2.312c-0.024-0.078-0.042-0.18-0.048-0.299h-0.012c-0.006 0.072-0.030 0.168-0.066 0.287l-0.725 2.318h-0.515l-0.976-3.234h0.545l0.665 2.432c0.018 0.084 0.036 0.18 0.042 0.293h0.024c0.006-0.078 0.024-0.18 0.060-0.299l0.743-2.426h0.473l0.671 2.438c0.018 0.084 0.036 0.18 0.042 0.293h0.024c0.006-0.102 0.024-0.198 0.048-0.293l0.659-2.438h0.521zM48.806 20.441c0 0.282-0.108 0.509-0.323 0.683s-0.503 0.264-0.862 0.264c-0.305 0-0.575-0.066-0.803-0.198v-0.557c0.252 0.204 0.533 0.311 0.838 0.311 0.407 0 0.617-0.15 0.617-0.449 0-0.12-0.042-0.222-0.12-0.299s-0.264-0.18-0.545-0.311c-0.287-0.12-0.485-0.252-0.605-0.395-0.12-0.138-0.174-0.323-0.174-0.557 0-0.27 0.108-0.491 0.323-0.671s0.485-0.27 0.815-0.27c0.258 0 0.485 0.048 0.689 0.15v0.521c-0.21-0.156-0.455-0.234-0.731-0.234-0.174 0-0.305 0.042-0.413 0.126-0.102 0.084-0.156 0.192-0.156 0.323 0 0.144 0.042 0.252 0.12 0.329s0.246 0.168 0.497 0.27c0.305 0.132 0.521 0.27 0.647 0.413 0.126 0.15 0.186 0.335 0.186 0.551z"></path>
<path fill="#fff" style="fill: var(--color2, #fff)" d="M53.411 20.165c0 0.377-0.138 0.677-0.401 0.898-0.27 0.216-0.635 0.323-1.096 0.323-0.168 0-0.359-0.030-0.569-0.084s-0.359-0.114-0.449-0.174v-0.629c0.126 0.114 0.299 0.21 0.509 0.287s0.407 0.12 0.587 0.12c0.581 0 0.868-0.228 0.868-0.677 0-0.192-0.060-0.353-0.186-0.485-0.126-0.138-0.377-0.311-0.767-0.533-0.371-0.21-0.635-0.413-0.785-0.599-0.15-0.192-0.228-0.419-0.228-0.689 0-0.359 0.132-0.647 0.401-0.874s0.611-0.335 1.036-0.335c0.407 0 0.701 0.054 0.892 0.162v0.593c-0.234-0.186-0.539-0.276-0.916-0.276-0.252 0-0.455 0.060-0.611 0.186-0.162 0.126-0.24 0.293-0.24 0.497 0 0.15 0.024 0.27 0.072 0.359s0.126 0.18 0.24 0.27c0.114 0.090 0.299 0.21 0.569 0.359 0.401 0.222 0.677 0.431 0.838 0.629 0.156 0.186 0.234 0.413 0.234 0.671zM55.549 21.273c-0.126 0.072-0.287 0.102-0.485 0.102-0.563 0-0.844-0.317-0.844-0.952v-1.911h-0.557v-0.437h0.557v-0.791l0.515-0.168v0.958h0.815v0.437h-0.809v1.827c0 0.216 0.036 0.371 0.108 0.461s0.198 0.138 0.371 0.138c0.126 0 0.24-0.036 0.335-0.102v0.437zM59.119 19.674c0 0.515-0.144 0.928-0.437 1.24s-0.683 0.467-1.174 0.467c-0.479 0-0.856-0.15-1.144-0.455s-0.425-0.707-0.425-1.198c0-0.533 0.144-0.958 0.437-1.27s0.695-0.467 1.21-0.467c0.479 0 0.856 0.15 1.126 0.449 0.276 0.299 0.407 0.713 0.407 1.234zM58.592 19.692c0-0.407-0.090-0.719-0.27-0.934s-0.437-0.323-0.773-0.323c-0.335 0-0.599 0.114-0.791 0.335s-0.287 0.533-0.287 0.94c0 0.389 0.096 0.689 0.293 0.91 0.192 0.216 0.455 0.323 0.785 0.323 0.335 0 0.593-0.108 0.773-0.323s0.27-0.521 0.27-0.928zM61.347 18.596c-0.090-0.072-0.222-0.102-0.395-0.102-0.228 0-0.413 0.108-0.557 0.323s-0.216 0.497-0.216 0.844v1.647h-0.515v-3.234h0.515v0.665h0.012c0.072-0.222 0.18-0.401 0.329-0.527s0.323-0.192 0.515-0.192c0.138 0 0.24 0.012 0.311 0.042v0.533zM64.467 19.818h-2.282c0.006 0.365 0.108 0.641 0.287 0.832 0.186 0.192 0.437 0.287 0.767 0.287 0.365 0 0.701-0.12 1-0.353v0.485c-0.282 0.21-0.659 0.311-1.126 0.311-0.461 0-0.821-0.15-1.078-0.449s-0.389-0.707-0.389-1.234c0-0.317 0.066-0.611 0.192-0.874 0.132-0.264 0.305-0.467 0.533-0.617 0.228-0.144 0.479-0.216 0.755-0.216 0.419 0 0.749 0.138 0.982 0.407s0.353 0.653 0.353 1.144v0.276zM63.934 19.381c-0.006-0.299-0.078-0.533-0.216-0.695-0.138-0.168-0.335-0.246-0.593-0.246-0.24 0-0.443 0.084-0.617 0.258s-0.276 0.401-0.323 0.683h1.749z"></path>
</symbol>
</defs>
</svg>
